<svg width="498" height="666" viewBox="0 0 498 666" fill="none" xmlns="http://www.w3.org/2000/svg">
<path d="M0.288086 503.186C12.4914 482.847 29.8923 457.989 52.491 428.611C75.5416 398.78 101.078 367.142 129.1 333.696C123.677 327.821 119.609 323.301 116.897 320.137C114.637 316.973 110.344 312.905 104.016 307.934C95.4284 304.318 85.937 300.25 75.5416 295.73C65.1462 291.211 55.4288 286.465 46.3893 281.493C37.3499 276.07 29.6663 270.646 23.3387 265.222C17.4631 259.347 14.5252 253.697 14.5252 248.273C14.9772 241.946 17.2371 238.104 21.3048 236.748C25.8246 235.392 31.2482 235.844 37.5759 238.104C44.3555 239.912 51.813 243.302 59.9485 248.273C68.0841 252.793 76.2196 257.991 84.3551 263.866C92.4906 269.742 99.9482 275.618 106.728 281.493C113.959 286.917 120.061 291.663 125.033 295.73C130.908 297.538 135.428 298.442 138.592 298.442C141.756 298.442 147.179 299.346 154.863 301.154H156.897C174.976 280.815 195.089 258.443 217.235 234.036C239.834 209.63 263.111 184.997 287.065 160.139C311.02 134.828 334.748 110.647 358.251 87.5968C381.753 64.0942 403.674 43.0775 424.013 24.5466C431.245 17.767 438.25 12.1173 445.03 7.59753C451.809 3.07781 457.685 0.591959 462.657 0.139991C467.628 -0.311976 471.244 1.94789 473.504 6.91958C476.216 11.8913 476.894 20.4788 475.538 32.6821C473.73 47.1452 470.34 64.3202 465.368 84.207C460.397 104.094 454.295 126.015 447.064 149.969C439.832 173.472 431.697 198.556 422.657 225.223C413.618 251.437 404.126 278.329 394.183 305.9C411.358 304.544 428.759 302.736 446.386 300.476C464.013 297.764 481.188 295.278 497.911 293.019C481.188 296.182 463.787 299.346 445.708 302.51C428.081 305.674 410.68 308.386 393.505 310.646C381.301 344.092 368.872 377.99 356.217 412.34C344.014 446.237 332.036 478.78 320.285 509.966C308.986 541.152 298.364 570.078 288.421 596.745C278.93 623.411 271.02 646.462 264.692 665.896C267.856 651.433 273.054 631.547 280.285 606.236C287.517 581.378 296.105 553.129 306.048 521.491C315.991 490.305 326.613 456.859 337.912 421.153C349.211 385.447 360.737 349.741 372.488 314.035C340.398 319.007 308.76 322.623 277.574 324.883C246.839 326.691 216.105 326.465 185.371 324.205L173.168 338.442C197.574 361.493 218.817 386.577 236.896 413.695C254.975 440.814 268.76 471.774 278.252 506.576C279.156 509.74 279.833 513.356 280.285 517.423C281.189 521.943 281.189 525.785 280.285 528.949C279.382 532.564 277.348 535.276 274.184 537.084C271.472 538.892 267.178 538.666 261.303 536.406C254.071 501.152 241.416 468.384 223.337 438.102C205.258 407.368 183.563 379.797 158.253 355.391C135.202 383.865 113.733 410.532 93.8465 435.39C74.4117 460.249 58.3666 482.169 45.7114 501.152C39.3838 510.192 33.5081 515.389 28.0844 516.745C22.6608 518.553 17.6891 518.553 13.1693 516.745C9.10156 514.938 5.93775 512.452 3.67788 509.288C1.41802 506.124 0.288086 504.09 0.288086 503.186ZM144.016 317.425L146.049 315.391H142.66L144.016 317.425ZM373.166 309.29C383.561 278.103 393.279 247.821 402.318 218.443C411.81 188.613 419.945 161.268 426.725 136.41C433.956 111.551 439.606 89.6307 443.674 70.6478C448.193 51.6649 450.453 36.9758 450.453 26.5804C449.549 27.4844 448.871 28.1623 448.419 28.6143C448.419 29.0663 448.193 29.7442 447.742 30.6482C447.29 31.5521 447.064 32.2301 447.064 32.6821C432.6 47.5972 415.877 65.4501 396.895 86.2409C377.912 107.032 357.347 129.63 335.2 154.037C313.505 178.443 290.907 203.98 267.404 230.646C243.902 256.861 220.625 283.075 197.574 309.29C226.049 313.357 254.975 314.939 284.353 314.035C313.732 313.131 343.336 311.549 373.166 309.29Z" fill="#EE754C"/>
</svg>
