<svg width="167" height="165" viewBox="0 0 167 165" fill="none" xmlns="http://www.w3.org/2000/svg">
<ellipse cx="83.5381" cy="82.0066" rx="82.6279" ry="82.0066" fill="#EE754C"/>
<path d="M49.9002 116.176L54.4499 99.2009C51.452 93.9827 49.877 88.048 49.8868 82.0068C49.8868 63.1351 64.9526 47.8374 83.5385 47.8374C102.124 47.8374 117.19 63.1351 117.19 82.0068C117.19 100.879 102.124 116.176 83.5385 116.176C77.5915 116.186 71.7491 114.588 66.6117 111.546L49.9002 116.176ZM71.3936 65.9745C70.959 66.0019 70.5344 66.1182 70.1451 66.3162C69.78 66.5261 69.4468 66.7885 69.1557 67.0953C68.7519 67.4814 68.5231 67.8163 68.2774 68.1409C67.0337 69.7844 66.3647 71.8019 66.3761 73.8745C66.3828 75.5488 66.8136 77.1787 67.4866 78.7027C68.863 81.7847 71.1277 85.0479 74.1194 88.0719C74.8395 88.7997 75.5428 89.5309 76.3 90.2109C80.0131 93.5303 84.4378 95.9242 89.2223 97.202L91.137 97.4993C91.7596 97.5334 92.3821 97.4856 93.0081 97.4548C93.9881 97.4035 94.9451 97.134 95.8113 96.6655C96.2519 96.435 96.682 96.1842 97.1001 95.9138C97.1001 95.9138 97.2448 95.8181 97.5208 95.6063C97.9751 95.2646 98.2544 95.022 98.6313 94.6222C98.9106 94.3283 99.1529 93.9832 99.338 93.5903C99.6004 93.0333 99.8629 91.9706 99.9706 91.0857C100.051 90.4091 100.028 90.0401 100.018 89.8111C100.004 89.4455 99.7048 89.0662 99.3783 88.9056L97.4198 88.0138C97.4198 88.0138 94.4921 86.7188 92.7052 85.8919C92.5168 85.8085 92.3149 85.761 92.1096 85.7518C91.8793 85.7278 91.6467 85.7541 91.4273 85.8289C91.2079 85.9038 91.0068 86.0255 90.8375 86.1858V86.1789C90.8207 86.1789 90.5952 86.3737 88.1622 89.3669C88.0226 89.5575 87.8302 89.7015 87.6097 89.7806C87.3891 89.8597 87.1504 89.8703 86.9238 89.8111C86.7046 89.7516 86.4898 89.6762 86.2811 89.5856C85.8638 89.4079 85.7191 89.3396 85.4331 89.2132L85.4162 89.2063C83.4911 88.3529 81.7086 87.2001 80.1329 85.7894C79.7089 85.4135 79.3152 85.0035 78.9114 84.6071C77.5874 83.3198 76.4336 81.8634 75.4789 80.2744L75.2803 79.9498C75.1377 79.7317 75.0224 79.4964 74.9371 79.2494C74.8092 78.7471 75.1424 78.3439 75.1424 78.3439C75.1424 78.3439 75.9601 77.435 76.3404 76.9429C76.657 76.534 76.9524 76.1086 77.2254 75.6684C77.6225 75.0192 77.747 74.3529 77.5384 73.8369C76.5961 71.4997 75.6202 69.1728 74.6174 66.8629C74.4189 66.4051 73.83 66.077 73.2949 66.0121C73.1132 65.9916 72.9315 65.9711 72.7497 65.9575C72.2978 65.9347 71.845 65.9392 71.3936 65.9711V65.9745Z" fill="#FBF7E4"/>
</svg>
