<svg width="165" height="165" viewBox="0 0 165 165" fill="none" xmlns="http://www.w3.org/2000/svg">
<circle cx="82.4256" cy="82.0066" r="82.0066" fill="#EE754C"/>
<path d="M82.4252 70.6848C76.3689 70.6848 71.4264 75.7726 71.4264 82.007C71.4264 88.2415 76.3689 93.3293 82.4252 93.3293C88.4815 93.3293 93.424 88.2415 93.424 82.007C93.424 75.7726 88.4815 70.6848 82.4252 70.6848ZM115.413 82.007C115.413 77.3184 115.455 72.6723 115.199 67.9922C114.943 62.5562 113.738 57.7317 109.877 53.7566C106.007 49.773 101.329 48.5414 96.0478 48.2781C91.4932 48.0147 86.9798 48.0572 82.4334 48.0572C77.8788 48.0572 73.3654 48.0147 68.8191 48.2781C63.5383 48.5414 58.8517 49.7815 54.9901 53.7566C51.1204 57.7402 49.9239 62.5562 49.6682 67.9922C49.4124 72.6808 49.4536 77.3269 49.4536 82.007C49.4536 86.6871 49.4124 91.3417 49.6682 96.0218C49.9239 101.458 51.1286 106.282 54.9901 110.257C58.8599 114.241 63.5383 115.473 68.8191 115.736C73.3737 115.999 77.8871 115.957 82.4334 115.957C86.9881 115.957 91.5015 115.999 96.0478 115.736C101.329 115.473 106.015 114.233 109.877 110.257C113.747 106.274 114.943 101.458 115.199 96.0218C115.463 91.3417 115.413 86.6956 115.413 82.007ZM82.4252 99.4278C73.0601 99.4278 65.5021 91.6475 65.5021 82.007C65.5021 72.3665 73.0601 64.5862 82.4252 64.5862C91.7902 64.5862 99.3483 72.3665 99.3483 82.007C99.3483 91.6475 91.7902 99.4278 82.4252 99.4278ZM100.041 67.9412C97.8548 67.9412 96.0891 66.1236 96.0891 63.8727C96.0891 61.6218 97.8548 59.8042 100.041 59.8042C102.228 59.8042 103.994 61.6218 103.994 63.8727C103.994 64.4072 103.893 64.9365 103.694 65.4305C103.496 65.9244 103.205 66.3732 102.838 66.7511C102.47 67.129 102.034 67.4287 101.555 67.6329C101.075 67.8371 100.561 67.9419 100.041 67.9412Z" fill="#FBF7E4"/>
</svg>
