<svg width="166" height="165" viewBox="0 0 166 165" fill="none" xmlns="http://www.w3.org/2000/svg">
<ellipse cx="83.372" cy="82.0066" rx="82.6279" ry="82.0066" fill="#EE754C"/>
<g clip-path="url(#clip0_116_230)">
<path d="M60.8372 116.467V82.0812L50.1175 72.3251L40.5049 66.9111V110.399C40.5049 113.757 43.2394 116.467 46.6047 116.467H60.8372Z" fill="#FBF7E4" fill-opacity="0.8"/>
<path d="M109.635 116.467H123.867C127.243 116.467 129.967 113.746 129.967 110.399V66.9114L119.079 73.1124L109.635 82.0811V116.467Z" fill="#FBF7E4" fill-opacity="0.8"/>
<path d="M60.8376 82.0812L59.3789 68.6456L60.8376 55.7864L85.2362 73.9907L109.635 55.7864L111.267 67.9513L109.635 82.0812L85.2362 100.286L60.8376 82.0812Z" fill="#FBF7E4" fill-opacity="0.8"/>
<path d="M109.635 55.7863V82.0811L129.967 66.9111V58.8203C129.967 51.3162 121.356 47.0384 115.328 51.5387L109.635 55.7863Z" fill="#FBF7E4"/>
<path d="M40.5049 66.911L49.8561 73.8883L60.8372 82.0811V55.7862L55.1438 51.5387C49.1051 47.038 40.5049 51.3162 40.5049 58.8198V66.9107V66.911Z" fill="#FBF7E4"/>
</g>
<defs>
<clipPath id="clip0_116_230">
<rect width="89.4618" height="67.0963" fill="white" transform="translate(40.5049 49.7012)"/>
</clipPath>
</defs>
</svg>
